<svg width="138" height="138" viewBox="0 0 138 138" fill="none" xmlns="http://www.w3.org/2000/svg">
<g clip-path="url(#clip0_1316_2658)">
<rect width="138" height="138" fill="#9CA277"/>
<rect width="138" height="138" fill="url(#paint0_linear_1316_2658)" fill-opacity="0.15" style="mix-blend-mode:multiply"/>
<path style="mix-blend-mode:multiply" fill-rule="evenodd" clip-rule="evenodd" d="M0 130V132C0 135.314 2.68629 138 6 138H132C135.314 138 138 135.314 138 132V130C138 133.314 135.314 136 132 136H6C2.68629 136 0 133.314 0 130ZM6 0C3.10051 0 0.681376 2.05669 0.121899 4.79079C0.681379 2.0567 3.10051 7.62939e-06 6 7.62939e-06L132 0C135.314 7.62939e-06 138 2.6863 138 6C138 2.68629 135.314 0 132 0H6Z" fill="black" fill-opacity="0.3"/>
<g style="mix-blend-mode:screen">
<path fill-rule="evenodd" clip-rule="evenodd" d="M137.936 132.881C137.51 135.777 135.014 138 132 138L6 138L132 138C135.014 138 137.51 135.777 137.936 132.881ZM1.11232e-05 7.99996C1.14067e-05 4.68625 2.68629 1.99996 6.00001 1.99996L132 1.99997C135.311 1.99997 137.995 4.68103 138 7.9903L138 6C138 2.68629 135.314 -2.39948e-07 132 -5.3594e-07L6.00001 -1.17907e-05C2.68631 -1.20867e-05 1.15778e-05 2.68628 1.12943e-05 5.99999L1.11232e-05 7.99996Z" fill="white" fill-opacity="0.2" style="mix-blend-mode:multiply"/>
</g>
<rect x="-1" width="26" height="12" fill="#005BBB"/>
<rect x="-1" y="12" width="26" height="12" fill="#FFD500"/>
<path d="M-17 69.5L38.5 25L112.5 33L109 69.5L112.5 96L93 146L67.5385 151.898H-11.819L-17 69.5Z" fill="url(#paint1_linear_1316_2658)"/>
<g filter="url(#filter0_d_1316_2658)">
<path d="M87.8333 45.1667H39.5V21H87.8333V45.1667ZM77.4983 64.935C72.5277 64.935 68.5 68.9674 68.5 73.9379C68.5 79.7683 68.5 81.9183 68.5 93.5H25V59.6667C25 57.1029 26.0184 54.6442 27.8313 52.8313C29.6442 51.0185 32.1029 50 34.6667 50H92.6667C95.2304 50 97.6892 51.0185 99.502 52.8313C101.315 54.6442 102.333 57.1029 102.333 59.6667V64.935C99.8099 64.935 86.6597 64.935 77.4983 64.935ZM54 59.6667H34.6667V69.3333H54V59.6667Z" fill="white"/>
</g>
<g filter="url(#filter1_d_1316_2658)">
<path d="M80.5 71C77.4664 71 75 73.5225 75 76.625V110.375C75 113.478 77.4664 116 80.5 116H102.5C105.534 116 108 113.478 108 110.375V85.0625H97C95.4789 85.0625 94.25 83.8057 94.25 82.25V71H80.5ZM97 71V82.25H108L97 71ZM81.875 76.625H87.375C88.1313 76.625 88.75 77.2578 88.75 78.0312C88.75 78.8047 88.1313 79.4375 87.375 79.4375H81.875C81.1188 79.4375 80.5 78.8047 80.5 78.0312C80.5 77.2578 81.1188 76.625 81.875 76.625ZM81.875 82.25H87.375C88.1313 82.25 88.75 82.8828 88.75 83.6562C88.75 84.4297 88.1313 85.0625 87.375 85.0625H81.875C81.1188 85.0625 80.5 84.4297 80.5 83.6562C80.5 82.8828 81.1188 82.25 81.875 82.25ZM86.5328 104.557C86.0086 106.341 84.4016 107.562 82.5797 107.562H81.875C81.1188 107.562 80.5 106.93 80.5 106.156C80.5 105.383 81.1188 104.75 81.875 104.75H82.5797C83.1898 104.75 83.7227 104.346 83.8945 103.748L85.175 99.3975C85.4672 98.4043 86.3609 97.7188 87.375 97.7188C88.3891 97.7188 89.2828 98.3955 89.575 99.3975L90.5719 102.79C91.2078 102.245 92.0156 101.938 92.875 101.938C94.2414 101.938 95.4875 102.729 96.0977 103.977L96.4758 104.75H101.125C101.881 104.75 102.5 105.383 102.5 106.156C102.5 106.93 101.881 107.562 101.125 107.562H95.625C95.1008 107.562 94.6281 107.264 94.3961 106.789L93.6398 105.233C93.4937 104.935 93.2016 104.75 92.8836 104.75C92.5656 104.75 92.2648 104.935 92.1273 105.233L91.3711 106.789C91.1219 107.308 90.5805 107.615 90.0219 107.562C89.4633 107.51 88.982 107.114 88.8273 106.569L87.375 101.674L86.5328 104.557Z" fill="white"/>
</g>
<path d="M15.2936 132.727C13.1518 132.727 11.2305 132.336 9.52971 131.554C7.82891 130.74 6.47456 129.648 5.46667 128.28C4.49028 126.912 3.95484 125.397 3.86035 123.736H10.5219C10.6478 124.778 11.1348 125.775 11.9852 126.459C12.8671 127.143 14.0022 127.589 15.2936 127.589C16.5534 127.589 17.3886 127.363 18.0441 126.767C18.6997 126.171 18.9778 125.657 19.0771 124.835C19.1864 123.931 18.8785 123.212 17.9393 122.612C17.0889 122.156 15.7188 121.667 13.829 121.146C11.8762 120.658 10.2699 120.153 9.01002 119.631C7.78166 119.11 6.71078 118.312 5.79738 117.237C4.91548 116.162 4.47453 114.713 4.47453 112.888C4.47453 111.39 4.88399 110.022 5.70289 108.784C6.5533 107.546 7.75016 106.569 9.29349 105.852C10.8683 105.135 12.7109 104.777 14.8211 104.777C17.9393 104.777 20.4275 105.591 22.2858 107.22C24.1441 108.816 25.1677 110.983 25.3567 113.719H19.0259C18.9314 112.644 18.474 111.685 17.6866 111.066C16.9306 110.414 15.8789 109.915 14.5876 109.915C13.3907 109.915 12.5628 110.137 11.9654 110.675C11.3354 111.131 10.992 111.895 10.992 112.71C10.992 113.622 11.3408 114.403 12.2227 114.892C13.1046 115.348 14.4747 115.82 16.333 116.309C18.2227 116.797 19.7818 117.302 21.0102 117.824C22.2385 118.345 23.2937 119.159 24.1756 120.267C25.089 121.342 25.5614 122.775 25.5929 124.567C25.5929 126.13 25.1677 127.531 24.3173 128.769C23.4984 130.007 22.3015 130.984 20.7267 131.701C19.1834 132.385 17.3723 132.727 15.2936 132.727Z" fill="white"/>
<ellipse cx="31.4535" cy="128.194" rx="4.39535" ry="4.53237" fill="white"/>
</g>
<defs>
<filter id="filter0_d_1316_2658" x="25" y="21" width="77.3335" height="74.5" filterUnits="userSpaceOnUse" color-interpolation-filters="sRGB">
<feFlood flood-opacity="0" result="BackgroundImageFix"/>
<feColorMatrix in="SourceAlpha" type="matrix" values="0 0 0 0 0 0 0 0 0 0 0 0 0 0 0 0 0 0 127 0" result="hardAlpha"/>
<feOffset dy="2"/>
<feComposite in2="hardAlpha" operator="out"/>
<feColorMatrix type="matrix" values="0 0 0 0 0 0 0 0 0 0 0 0 0 0 0 0 0 0 0.5 0"/>
<feBlend mode="normal" in2="BackgroundImageFix" result="effect1_dropShadow_1316_2658"/>
<feBlend mode="normal" in="SourceGraphic" in2="effect1_dropShadow_1316_2658" result="shape"/>
</filter>
<filter id="filter1_d_1316_2658" x="75" y="71" width="33" height="47" filterUnits="userSpaceOnUse" color-interpolation-filters="sRGB">
<feFlood flood-opacity="0" result="BackgroundImageFix"/>
<feColorMatrix in="SourceAlpha" type="matrix" values="0 0 0 0 0 0 0 0 0 0 0 0 0 0 0 0 0 0 127 0" result="hardAlpha"/>
<feOffset dy="2"/>
<feComposite in2="hardAlpha" operator="out"/>
<feColorMatrix type="matrix" values="0 0 0 0 0 0 0 0 0 0 0 0 0 0 0 0 0 0 0.5 0"/>
<feBlend mode="normal" in2="BackgroundImageFix" result="effect1_dropShadow_1316_2658"/>
<feBlend mode="normal" in="SourceGraphic" in2="effect1_dropShadow_1316_2658" result="shape"/>
</filter>
<linearGradient id="paint0_linear_1316_2658" x1="-2.57045e-07" y1="138" x2="140.965" y2="3.09775" gradientUnits="userSpaceOnUse">
<stop/>
<stop offset="1" stop-opacity="0"/>
</linearGradient>
<linearGradient id="paint1_linear_1316_2658" x1="-3.77601" y1="152.434" x2="74.509" y2="59.1357" gradientUnits="userSpaceOnUse">
<stop stop-opacity="0.5"/>
<stop offset="1" stop-opacity="0"/>
</linearGradient>
<clipPath id="clip0_1316_2658">
<rect width="138" height="138" rx="6" fill="white"/>
</clipPath>
</defs>
</svg>
