<svg width="138" height="138" viewBox="0 0 138 138" fill="none" xmlns="http://www.w3.org/2000/svg">
<g clip-path="url(#clip0_1316_2636)">
<rect width="138" height="138" fill="#A28E77"/>
<rect width="138" height="138" fill="url(#paint0_linear_1316_2636)" fill-opacity="0.15" style="mix-blend-mode:multiply"/>
<path style="mix-blend-mode:multiply" fill-rule="evenodd" clip-rule="evenodd" d="M0 130V132C0 135.314 2.68629 138 6 138H132C135.314 138 138 135.314 138 132V130C138 133.314 135.314 136 132 136H6C2.68629 136 0 133.314 0 130ZM6 0C3.10051 0 0.681376 2.05669 0.121899 4.79079C0.681379 2.0567 3.10051 7.62939e-06 6 7.62939e-06L132 0C135.314 7.62939e-06 138 2.6863 138 6C138 2.68629 135.314 0 132 0H6Z" fill="black" fill-opacity="0.3"/>
<g style="mix-blend-mode:screen">
<path fill-rule="evenodd" clip-rule="evenodd" d="M137.936 132.881C137.51 135.777 135.014 138 132 138L6 138L132 138C135.014 138 137.51 135.777 137.936 132.881ZM1.11232e-05 7.99996C1.14067e-05 4.68625 2.68629 1.99996 6.00001 1.99996L132 1.99997C135.311 1.99997 137.995 4.68103 138 7.9903L138 6C138 2.68629 135.314 -2.39948e-07 132 -5.3594e-07L6.00001 -1.17907e-05C2.68631 -1.20867e-05 1.15778e-05 2.68628 1.12943e-05 5.99999L1.11232e-05 7.99996Z" fill="white" fill-opacity="0.2" style="mix-blend-mode:multiply"/>
</g>
<rect x="-1" width="26" height="12" fill="#005BBB"/>
<rect x="-1" y="12" width="26" height="12" fill="#FFD500"/>
<path d="M-17 69.5L34 24.5L112.5 33L109 69.5L107 109L87 151.898H67.5385H-11.819L-17 69.5Z" fill="url(#paint1_linear_1316_2636)"/>
<g filter="url(#filter0_d_1316_2636)">
<path fill-rule="evenodd" clip-rule="evenodd" d="M118.465 54.8699L119.604 55.9991C120.578 56.9665 121.125 58.2779 121.125 59.6453C121.125 61.0126 120.578 62.324 119.604 63.2914L113.401 69.4442C113.005 69.8362 112.469 70.0563 111.91 70.0561C111.35 70.0558 110.814 69.8353 110.419 69.4429C110.024 69.0505 109.802 68.5185 109.802 67.9639C109.802 67.4093 110.025 66.8775 110.42 66.4854L116.621 60.3327C116.712 60.2426 116.784 60.1357 116.833 60.0179C116.882 59.9002 116.908 59.774 116.908 59.6466C116.908 59.5191 116.882 59.3929 116.833 59.2752C116.784 59.1575 116.712 59.0505 116.621 58.9605L115.925 58.273L107.783 66.3495V108.64H34V25H107.783V44.0072C108.755 43.5896 109.794 43.3445 110.853 43.2832C111.978 43.2081 113.108 43.3721 114.164 43.7642C115.221 44.1563 116.182 44.7676 116.982 45.5571C118.154 46.7758 118.924 48.32 119.189 49.9838C119.454 51.6477 119.202 53.3521 118.465 54.8699ZM68.2246 97.9132H88.7862C89.2754 97.9132 89.7446 97.7178 90.0905 97.3747C90.4365 97.0316 90.6308 96.5662 90.6308 96.0809C90.6308 95.5957 90.4365 95.1303 90.0905 94.7872C89.7446 94.4441 89.2754 94.2513 88.7862 94.2513H68.2246C66.2167 94.2513 65.882 92.9523 66.5856 91.5017C67.0134 90.743 67.3563 89.9401 67.608 89.1075C67.7643 88.4352 67.6894 87.7304 67.3952 87.1052C67.1011 86.48 66.6046 85.9703 65.9848 85.6573C64.9873 85.2115 63.8699 85.1023 62.8039 85.3464C61.7378 85.5904 60.7818 86.1743 60.0822 87.0086C59.173 87.9365 57.9135 89.3531 56.7092 90.7332C57.455 87.8372 58.4221 84.1152 59.3707 80.4873C59.6425 79.6607 59.5884 78.7626 59.2192 77.9739C58.8501 77.1853 58.1933 76.5648 57.3812 76.2374C56.4815 75.9305 55.498 75.9739 54.6293 76.3586C53.7606 76.7433 53.0715 77.4408 52.7013 78.3101C51.5655 80.4847 42.5535 95.4641 42.4613 95.6131C42.2104 96.03 42.1368 96.5288 42.2566 96.9996C42.3764 97.4704 42.6799 97.8747 43.1003 98.1236C43.5207 98.3725 44.0235 98.4455 44.4981 98.3266C44.9728 98.2077 45.3804 97.9067 45.6313 97.4898L45.7615 97.2731L45.7615 97.2731C46.8059 95.5358 53.297 84.738 55.4286 80.9839C53.7237 87.5209 51.8422 94.7924 51.7315 95.4458C51.607 95.9262 51.6444 96.4339 51.838 96.8912C52.0317 97.3486 52.371 97.7304 52.804 97.9785C53.2864 98.2158 53.8347 98.2871 54.3624 98.1811C54.8901 98.075 55.3672 97.7978 55.7184 97.393C56.0505 97.0951 56.6723 96.3868 58.2402 94.578L58.3028 94.506C59.7753 92.8092 61.5846 90.7245 62.7278 89.5596C63.1231 89.1545 63.4683 89.5204 63.3128 89.8158L63.3094 89.8223C62.4322 91.4998 61.2353 93.7886 62.4432 95.7595C63.6237 97.6884 65.8477 97.9132 68.2246 97.9132ZM76.4435 86.5094L83.3052 84.7137L100.631 67.5257L94.8338 61.7755L77.4685 79.0001L75.7188 85.7932C75.6899 85.8924 75.6892 85.9976 75.7166 86.0972C75.744 86.1968 75.7986 86.2869 75.8743 86.3578C75.9465 86.4317 76.0376 86.4848 76.1378 86.5115C76.238 86.5382 76.3436 86.5375 76.4435 86.5094ZM103.611 64.5696L113.519 54.7419C114.409 53.9752 114.958 52.8919 115.047 51.7265C115.137 50.5612 114.76 49.4077 113.999 48.5159C113.644 48.1702 113.222 47.8981 112.76 47.7155C112.298 47.5328 111.803 47.4433 111.306 47.4521L111.069 47.46C109.8 47.5422 108.608 48.0879 107.722 48.9916L97.8141 58.8193L103.611 64.5696ZM67 54.0001H83.5C83.8978 54.0001 84.2794 53.842 84.5607 53.5607C84.842 53.2794 85 52.8979 85 52.5001C85 52.1022 84.842 51.7207 84.5607 51.4394C84.2794 51.1581 83.8978 51.0001 83.5 51.0001H71.5C69.5109 51.0001 67.6032 50.2099 66.1967 48.8034C64.7902 47.3968 64 45.4892 64 43.5001C64 41.5109 64.7902 39.6033 66.1967 38.1968C67.6032 36.7902 69.5109 36.0001 71.5 36.0001H74.5V33.0001H80.5V36.0001H88V42.0001H71.5C71.1022 42.0001 70.7206 42.1581 70.4393 42.4394C70.158 42.7207 70 43.1022 70 43.5001C70 43.8979 70.158 44.2794 70.4393 44.5607C70.7206 44.842 71.1022 45.0001 71.5 45.0001H83.5C85.4891 45.0001 87.3968 45.7902 88.8033 47.1968C90.2098 48.6033 91 50.5109 91 52.5001C91 54.4892 90.2098 56.3968 88.8033 57.8034C87.3968 59.2099 85.4891 60.0001 83.5 60.0001H80.5V63.0001H74.5V60.0001H67V54.0001ZM54.7308 47.6477V54.1187H61.9231V60.0678L54.7308 60.0678V66.5388L42.9615 57.0933L54.7308 47.6477ZM48.1923 42.8813L48.1923 49.3523L59.9615 39.9068L48.1923 30.4612L48.1923 36.9322L41 36.9322L41 42.8813L48.1923 42.8813Z" fill="white"/>
</g>
<path d="M15.2936 132.727C13.1518 132.727 11.2305 132.336 9.52971 131.554C7.82891 130.74 6.47456 129.648 5.46667 128.28C4.49028 126.912 3.95484 125.397 3.86035 123.736H10.5219C10.6478 124.778 11.1348 125.775 11.9852 126.459C12.8671 127.143 14.0022 127.589 15.2936 127.589C16.5534 127.589 17.3886 127.363 18.0441 126.767C18.6997 126.171 18.9778 125.657 19.0771 124.835C19.1864 123.931 18.8785 123.212 17.9393 122.612C17.0889 122.156 15.7188 121.667 13.829 121.146C11.8762 120.658 10.2699 120.153 9.01002 119.631C7.78166 119.11 6.71078 118.312 5.79738 117.237C4.91548 116.162 4.47453 114.713 4.47453 112.888C4.47453 111.39 4.88399 110.022 5.70289 108.784C6.5533 107.546 7.75016 106.569 9.29349 105.852C10.8683 105.135 12.7109 104.777 14.8211 104.777C17.9393 104.777 20.4275 105.591 22.2858 107.22C24.1441 108.816 25.1677 110.983 25.3567 113.719H19.0259C18.9314 112.644 18.474 111.685 17.6866 111.066C16.9306 110.414 15.8789 109.915 14.5876 109.915C13.3907 109.915 12.5628 110.137 11.9654 110.675C11.3354 111.131 10.992 111.895 10.992 112.71C10.992 113.622 11.3408 114.403 12.2227 114.892C13.1046 115.348 14.4747 115.82 16.333 116.309C18.2227 116.797 19.7818 117.302 21.0102 117.824C22.2385 118.345 23.2937 119.159 24.1756 120.267C25.089 121.342 25.5614 122.775 25.5929 124.567C25.5929 126.13 25.1677 127.531 24.3173 128.769C23.4984 130.007 22.3015 130.984 20.7267 131.701C19.1834 132.385 17.3723 132.727 15.2936 132.727Z" fill="white"/>
<ellipse cx="31.4535" cy="128.194" rx="4.39535" ry="4.53237" fill="white"/>
</g>
<defs>
<filter id="filter0_d_1316_2636" x="34" y="25" width="87.125" height="85.6401" filterUnits="userSpaceOnUse" color-interpolation-filters="sRGB">
<feFlood flood-opacity="0" result="BackgroundImageFix"/>
<feColorMatrix in="SourceAlpha" type="matrix" values="0 0 0 0 0 0 0 0 0 0 0 0 0 0 0 0 0 0 127 0" result="hardAlpha"/>
<feOffset dy="2"/>
<feComposite in2="hardAlpha" operator="out"/>
<feColorMatrix type="matrix" values="0 0 0 0 0 0 0 0 0 0 0 0 0 0 0 0 0 0 0.5 0"/>
<feBlend mode="normal" in2="BackgroundImageFix" result="effect1_dropShadow_1316_2636"/>
<feBlend mode="normal" in="SourceGraphic" in2="effect1_dropShadow_1316_2636" result="shape"/>
</filter>
<linearGradient id="paint0_linear_1316_2636" x1="-2.57045e-07" y1="138" x2="140.965" y2="3.09775" gradientUnits="userSpaceOnUse">
<stop/>
<stop offset="1" stop-opacity="0"/>
</linearGradient>
<linearGradient id="paint1_linear_1316_2636" x1="-3.77601" y1="152.434" x2="74.509" y2="59.1357" gradientUnits="userSpaceOnUse">
<stop stop-opacity="0.5"/>
<stop offset="1" stop-opacity="0"/>
</linearGradient>
<clipPath id="clip0_1316_2636">
<rect width="138" height="138" rx="6" fill="white"/>
</clipPath>
</defs>
</svg>
