<svg width="138" height="138" viewBox="0 0 138 138" fill="none" xmlns="http://www.w3.org/2000/svg">
<g clip-path="url(#clip0_1316_2632)">
<rect width="138" height="138" fill="#4B6B92"/>
<rect width="138" height="138" fill="url(#paint0_linear_1316_2632)" fill-opacity="0.15" style="mix-blend-mode:multiply"/>
<path style="mix-blend-mode:multiply" fill-rule="evenodd" clip-rule="evenodd" d="M0 130V132C0 135.314 2.68629 138 6 138H132C135.314 138 138 135.314 138 132V130C138 133.314 135.314 136 132 136H6C2.68629 136 0 133.314 0 130ZM6 0C3.10051 0 0.681376 2.05669 0.121899 4.79079C0.681379 2.0567 3.10051 7.62939e-06 6 7.62939e-06L132 0C135.314 7.62939e-06 138 2.6863 138 6C138 2.68629 135.314 0 132 0H6Z" fill="black" fill-opacity="0.3"/>
<g style="mix-blend-mode:screen">
<path fill-rule="evenodd" clip-rule="evenodd" d="M137.936 132.881C137.51 135.777 135.014 138 132 138L6 138L132 138C135.014 138 137.51 135.777 137.936 132.881ZM1.11232e-05 7.99996C1.14067e-05 4.68625 2.68629 1.99996 6.00001 1.99996L132 1.99997C135.311 1.99997 137.995 4.68103 138 7.9903L138 6C138 2.68629 135.314 -2.39948e-07 132 -5.3594e-07L6.00001 -1.17907e-05C2.68631 -1.20867e-05 1.15778e-05 2.68628 1.12943e-05 5.99999L1.11232e-05 7.99996Z" fill="white" fill-opacity="0.2" style="mix-blend-mode:multiply"/>
</g>
<rect x="-1" width="26" height="12" fill="#005BBB"/>
<rect x="-1" y="12" width="26" height="12" fill="#FFD500"/>
<path d="M-33 111L67.7857 26L102.5 66.5L130.392 68.4317L171 147L116.183 141.376L93.5728 147L-1 152.5L-33 111Z" fill="url(#paint1_linear_1316_2632)"/>
<g filter="url(#filter0_d_1316_2632)">
<path d="M85.819 28L82.0248 36.5065C81.2787 36.4164 80.5282 36.3681 79.7767 36.3616C77.3304 36.3463 74.9528 36.7815 72.7295 37.588L67.3521 30.0251L57.1687 37.4939L62.7341 45.3113C61.018 47.7958 59.8726 50.6319 59.3805 53.6149L49.5 54.7035L50.7362 67.304L61.2522 66.1426C62.4295 68.5154 64.046 70.6414 66.0153 72.4069L61.527 82.4815L72.9466 87.6132L77.4567 77.4947C80.1525 77.7832 82.7947 77.5244 85.2625 76.7979L91.7672 85.7471L99.1035 80.3618L101.799 85.0434C98.3981 87.6546 95.3576 90.708 92.7573 94.1234L81.3735 87.54L75.4253 98.3915L86.5559 104.88C84.8937 108.877 83.7779 113.082 83.2386 117.379H70.2941V129.856H83.2968C83.6764 132.62 84.2979 135.345 85.154 138H124.313C118.782 135.501 114.932 129.92 114.932 123.433C114.932 114.615 122.045 107.464 130.826 107.464C139.606 107.464 146.726 114.615 146.726 123.433C146.726 129.92 142.871 135.501 137.338 138H158.5V69.3579L155.797 67.87L149.415 79.026C145.458 77.3245 141.287 76.1742 137.019 75.6071V62.7093H124.595V75.5931C120.362 76.1452 116.308 77.2615 112.496 78.8518L106.223 67.8702L97.8964 72.5737L95.757 69.5611C97.4314 67.3713 98.6505 64.8659 99.3419 62.1936L109.62 61.0688L108.384 48.4683L98.6122 49.4338C97.4768 46.5068 95.6922 43.878 93.3938 41.7472L97.2386 33.1315L85.819 28ZM79.4948 47.5685C84.8837 47.5127 89.4261 51.7091 89.7582 57.1711C90.1005 62.8094 85.8255 67.6566 80.2108 68.0005C74.5957 68.345 69.7695 64.058 69.427 58.4195C69.0847 52.7815 73.3526 47.9345 78.9674 47.5903C79.1432 47.5796 79.3213 47.5703 79.4948 47.5685Z" fill="white"/>
</g>
<path d="M15.2936 132.727C13.1518 132.727 11.2305 132.336 9.52971 131.554C7.82891 130.74 6.47456 129.648 5.46667 128.28C4.49028 126.912 3.95484 125.397 3.86035 123.736H10.5219C10.6478 124.778 11.1348 125.774 11.9852 126.458C12.8671 127.143 14.0022 127.589 15.2936 127.589C16.5534 127.589 17.3886 127.363 18.0441 126.767C18.6997 126.171 18.9778 125.657 19.0771 124.835C19.1864 123.931 18.8785 123.211 17.9393 122.612C17.0889 122.156 15.7188 121.667 13.829 121.146C11.8762 120.657 10.2699 120.153 9.01002 119.631C7.78166 119.11 6.71078 118.312 5.79738 117.237C4.91548 116.162 4.47453 114.712 4.47453 112.888C4.47453 111.39 4.88399 110.022 5.70289 108.784C6.5533 107.546 7.75016 106.569 9.29349 105.852C10.8683 105.135 12.7109 104.777 14.8211 104.777C17.9393 104.777 20.4275 105.591 22.2858 107.22C24.1441 108.816 25.1677 110.983 25.3567 113.719H19.0259C18.9314 112.644 18.474 111.685 17.6866 111.066C16.9306 110.414 15.8789 109.915 14.5876 109.915C13.3907 109.915 12.5628 110.137 11.9654 110.675C11.3354 111.131 10.992 111.895 10.992 112.71C10.992 113.622 11.3408 114.403 12.2227 114.892C13.1046 115.348 14.4747 115.82 16.333 116.309C18.2227 116.797 19.7818 117.302 21.0102 117.823C22.2385 118.345 23.2937 119.159 24.1756 120.267C25.089 121.342 25.5614 122.775 25.5929 124.566C25.5929 126.13 25.1677 127.531 24.3173 128.769C23.4984 130.007 22.3015 130.984 20.7267 131.7C19.1834 132.385 17.3723 132.727 15.2936 132.727Z" fill="white"/>
<ellipse cx="31.4535" cy="128.194" rx="4.39535" ry="4.53237" fill="white"/>
</g>
<defs>
<filter id="filter0_d_1316_2632" x="49.5" y="28" width="109" height="112" filterUnits="userSpaceOnUse" color-interpolation-filters="sRGB">
<feFlood flood-opacity="0" result="BackgroundImageFix"/>
<feColorMatrix in="SourceAlpha" type="matrix" values="0 0 0 0 0 0 0 0 0 0 0 0 0 0 0 0 0 0 127 0" result="hardAlpha"/>
<feOffset dy="2"/>
<feComposite in2="hardAlpha" operator="out"/>
<feColorMatrix type="matrix" values="0 0 0 0 0 0 0 0 0 0 0 0 0 0 0 0 0 0 0.5 0"/>
<feBlend mode="normal" in2="BackgroundImageFix" result="effect1_dropShadow_1316_2632"/>
<feBlend mode="normal" in="SourceGraphic" in2="effect1_dropShadow_1316_2632" result="shape"/>
</filter>
<linearGradient id="paint0_linear_1316_2632" x1="-2.57045e-07" y1="138" x2="140.965" y2="3.09775" gradientUnits="userSpaceOnUse">
<stop/>
<stop offset="1" stop-opacity="0"/>
</linearGradient>
<linearGradient id="paint1_linear_1316_2632" x1="30.2433" y1="147.511" x2="105.631" y2="63.8363" gradientUnits="userSpaceOnUse">
<stop stop-opacity="0.5"/>
<stop offset="1" stop-opacity="0"/>
</linearGradient>
<clipPath id="clip0_1316_2632">
<rect width="138" height="138" rx="6" fill="white"/>
</clipPath>
</defs>
</svg>
