<svg width="20" height="20" viewBox="0 0 20 20" fill="none" xmlns="http://www.w3.org/2000/svg">
<g clip-path="url(#clip0_690_709)">
<path fill-rule="evenodd" clip-rule="evenodd" d="M20 0H0V20H20V0ZM2.5 3.4375H17.5C17.7486 3.4375 17.9871 3.53627 18.1629 3.71209C18.3387 3.8879 18.4375 4.12636 18.4375 4.375V15C18.4354 15.4138 18.2702 15.81 17.9776 16.1026C17.685 16.3952 17.2888 16.5604 16.875 16.5625H3.125C2.71123 16.5604 2.315 16.3952 2.02241 16.1026C1.72983 15.81 1.56455 15.4138 1.5625 15V4.375C1.5625 4.12636 1.66127 3.8879 1.83709 3.71209C2.0129 3.53627 2.25136 3.4375 2.5 3.4375ZM10 9.97656L10.7422 9.29688L15.0938 5.3125H4.90625L10 9.97656ZM3.4375 13.4922L7.25 10L3.4375 6.50781V13.4922ZM9.36719 11.9375L8.63281 11.2734L4.90625 14.6875H15.0938L11.3672 11.2734L10.6328 11.9375C10.4608 12.0973 10.2348 12.1861 10 12.1861C9.76524 12.1861 9.53917 12.0973 9.36719 11.9375ZM16.5625 6.50781L12.75 10L16.5625 13.4922V6.50781Z" fill="#F8F8F8"/>
</g>
<defs>
<clipPath id="clip0_690_709">
<rect width="20" height="20" fill="white"/>
</clipPath>
</defs>
</svg>
