<svg width="20" height="20" viewBox="0 0 20 20" fill="none" xmlns="http://www.w3.org/2000/svg">
<g clip-path="url(#clip0_690_707)">
<path fill-rule="evenodd" clip-rule="evenodd" d="M20 0H0V20H20V0ZM10 3.29159V10.7916L12.5 8.29159H16.6667C16.9028 8.29159 17.1006 8.21159 17.26 8.05159C17.42 7.89214 17.5 7.69436 17.5 7.45825V3.29159C17.5 3.05547 17.42 2.85742 17.26 2.69742C17.1006 2.53797 16.9028 2.45825 16.6667 2.45825H10.8333C10.5972 2.45825 10.3994 2.53797 10.24 2.69742C10.08 2.85742 10 3.05547 10 3.29159ZM11.3858 16.3016C13.0869 17.1005 14.8333 17.4999 16.625 17.4999C16.875 17.4999 17.0833 17.4166 17.25 17.2499C17.4167 17.0833 17.5 16.8749 17.5 16.6249V13.2499C17.5 13.0555 17.4375 12.8852 17.3125 12.7391C17.1875 12.5935 17.0278 12.4999 16.8333 12.4583L13.9583 11.8749C13.7639 11.8471 13.5661 11.8644 13.365 11.9266C13.1633 11.9894 13 12.0833 12.875 12.2083L10.9167 14.1666C9.86111 13.5277 8.89583 12.7708 8.02083 11.8958C7.14583 11.0208 6.41667 10.0833 5.83333 9.08325L7.83333 7.04159C7.95833 6.91659 8.03833 6.77409 8.07333 6.61409C8.10778 6.45464 8.11111 6.2777 8.08333 6.08325L7.54167 3.16659C7.51389 2.97214 7.42361 2.81242 7.27083 2.68742C7.11806 2.56242 6.94444 2.49992 6.75 2.49992H3.375C3.125 2.49992 2.91667 2.58325 2.75 2.74992C2.58333 2.91659 2.5 3.12492 2.5 3.37492C2.5 5.16659 2.89944 6.91297 3.69833 8.61409C4.49667 10.3158 5.55222 11.8227 6.865 13.1349C8.17722 14.4477 9.68417 15.5033 11.3858 16.3016Z" fill="#F8F8F8"/>
</g>
<defs>
<clipPath id="clip0_690_707">
<rect width="20" height="20" fill="white"/>
</clipPath>
</defs>
</svg>
