<svg width="20" height="20" viewBox="0 0 20 20" fill="none" xmlns="http://www.w3.org/2000/svg">
<g clip-path="url(#clip0_690_705)">
<path fill-rule="evenodd" clip-rule="evenodd" d="M20 0H0V20H20V0ZM13.7498 10.0001C13.7498 10.5667 13.6998 11.1167 13.6332 11.6667H16.4498C16.5832 11.1334 16.6665 10.5751 16.6665 10.0001C16.6665 9.42508 16.5832 8.86675 16.4498 8.33341H13.6332C13.6998 8.88342 13.7498 9.43341 13.7498 10.0001ZM13.3082 13.3334C13.0415 14.3751 12.6582 15.3751 12.1582 16.3001C13.6783 15.7767 14.9591 14.7236 15.7665 13.3334H13.3082ZM8.04984 11.6667H11.9498C12.0248 11.1167 12.0832 10.5667 12.0832 10.0001C12.0832 9.43341 12.0248 8.87508 11.9498 8.33341H8.04984C7.9665 8.87508 7.9165 9.43341 7.9165 10.0001C7.9165 10.5667 7.9665 11.1167 8.04984 11.6667ZM8.40817 13.3334C8.74984 14.5251 9.30817 15.6334 9.99984 16.6334C10.6915 15.6334 11.2498 14.5251 11.5915 13.3334H8.40817ZM4.23317 6.66675H6.6665C6.95817 5.62508 7.33317 4.62508 7.83317 3.70008C6.31217 4.21799 5.03222 5.27276 4.23317 6.66675ZM6.6665 13.3334H4.23317C5.03721 14.7232 6.31536 15.7765 7.83317 16.3001C7.33317 15.3751 6.95817 14.3751 6.6665 13.3334ZM3.33317 10.0001C3.33317 10.5751 3.4165 11.1334 3.54984 11.6667H6.3665C6.29984 11.1167 6.24984 10.5667 6.24984 10.0001C6.24984 9.43341 6.29984 8.88342 6.3665 8.33341H3.54984C3.4165 8.86675 3.33317 9.42508 3.33317 10.0001ZM11.5915 6.66675C11.2498 5.47508 10.6915 4.35841 9.99984 3.35841C9.30817 4.35841 8.74984 5.47508 8.40817 6.66675H11.5915ZM13.3082 6.66675H15.7665C14.9665 5.28341 13.6915 4.22508 12.1582 3.70008C12.6611 4.63833 13.0474 5.63463 13.3082 6.66675ZM1.6665 10.0001C1.6665 5.41675 5.3915 1.66675 9.99984 1.66675C11.0942 1.66675 12.1778 1.8823 13.1889 2.30109C14.1999 2.71987 15.1186 3.3337 15.8924 4.10752C16.6662 4.88135 17.28 5.80001 17.6988 6.81105C18.1176 7.8221 18.3332 8.90573 18.3332 10.0001C18.3332 12.2102 17.4552 14.3298 15.8924 15.8926C14.3296 17.4554 12.21 18.3334 9.99984 18.3334C8.90549 18.3334 7.82185 18.1179 6.81081 17.6991C5.79976 17.2803 4.8811 16.6665 4.10728 15.8926C2.54448 14.3298 1.6665 12.2102 1.6665 10.0001Z" fill="#F8F8F8"/>
</g>
<defs>
<clipPath id="clip0_690_705">
<rect width="20" height="20" fill="white"/>
</clipPath>
</defs>
</svg>
