<svg width="175" height="118" viewBox="0 0 175 118" fill="none" xmlns="http://www.w3.org/2000/svg">
<path d="M24.6842 78.6665C20.0601 78.6665 15.9121 77.8487 12.2401 76.2133C8.56806 74.5098 5.64404 72.227 3.46802 69.3651C1.57554 66.7957 0.450346 63.9792 0.0924315 60.9156C0.0256721 60.3442 0.485098 59.8592 1.06042 59.8592H13.4991C14.0035 59.8592 14.422 60.2371 14.5365 60.7284C14.9554 62.5242 15.9579 64.0402 17.5441 65.2765C19.4481 66.7075 21.7941 67.423 24.5822 67.423C27.3022 67.423 29.4102 66.8779 30.9062 65.7876C32.4702 64.6973 33.2522 63.3004 33.2522 61.5968C33.2522 59.757 32.3002 58.3942 30.3962 57.5083C28.5602 56.5543 25.6022 55.5322 21.5221 54.4419C17.3061 53.4198 13.8381 52.3636 11.1181 51.2733C8.46606 50.183 6.15404 48.5136 4.18203 46.2649C2.27802 44.0162 1.32601 40.9838 1.32601 37.1679C1.32601 34.0333 2.21002 31.1714 3.97803 28.582C5.81404 25.9926 8.39806 23.9483 11.7301 22.4492C15.1301 20.9501 19.1081 20.2005 23.6642 20.2005C30.3962 20.2005 35.7682 21.904 39.7803 25.3112C43.5392 28.4394 45.7162 32.6145 46.3116 37.8363C46.3773 38.4128 45.9168 38.9055 45.3365 38.9055H33.6556C33.1383 38.9055 32.7134 38.509 32.6149 38.0012C32.261 36.1766 31.3514 34.7063 29.8862 33.5904C28.2542 32.2276 26.0442 31.5462 23.2562 31.5462C20.6721 31.5462 18.6661 32.0232 17.2381 32.9771C15.8781 33.9311 15.1981 35.2599 15.1981 36.9635C15.1981 38.8714 16.1501 40.3365 18.0541 41.3586C19.9581 42.3126 22.9162 43.3007 26.9282 44.3228C31.0082 45.3449 34.3742 46.4012 37.0263 47.4914C39.6783 48.5817 41.9563 50.2853 43.8603 52.6021C45.8323 54.8508 46.8523 57.849 46.9203 61.5968C46.9203 64.8677 46.0023 67.7978 44.1663 70.3872C42.3983 72.9766 39.8143 75.0209 36.4143 76.52C33.0822 77.951 29.1722 78.6665 24.6842 78.6665Z" fill="white"/>
<path d="M129.616 1.771C130.168 1.771 130.616 2.21871 130.616 2.771V77.6664C130.616 78.2187 130.168 78.6664 129.616 78.6664H117.667C117.114 78.6664 116.667 78.2187 116.667 77.6664V2.771C116.667 2.21871 117.114 1.771 117.667 1.771H129.616Z" fill="white"/>
<path d="M108.424 48.2069C108.424 49.9094 108.329 51.4702 108.14 52.8891C108.075 53.3735 107.656 53.7264 107.167 53.7264H67.6227C67.0376 53.7264 66.5749 54.2274 66.6542 54.8071C67.1436 58.3833 68.5379 61.2258 70.8372 63.3345C73.3635 65.6513 76.4701 66.8097 80.1571 66.8097C85.2633 66.8097 88.9572 64.7112 91.2389 60.5141C91.4207 60.1797 91.7662 59.9614 92.1469 59.9614H105.645C106.315 59.9614 106.796 60.6082 106.572 61.2398C104.844 66.1198 101.843 70.1911 97.5678 73.4536C92.9249 76.9288 87.2238 78.6665 80.4643 78.6665C75.0021 78.6665 70.0862 77.474 65.7164 75.089C61.4149 72.6359 58.0352 69.1947 55.5772 64.7655C53.1875 60.3362 51.9927 55.2256 51.9927 49.4335C51.9927 43.5733 53.1875 38.4285 55.5772 33.9993C57.9669 29.57 61.3125 26.1629 65.614 23.778C69.9155 21.393 74.8656 20.2005 80.4643 20.2005C85.8582 20.2005 90.6718 21.3589 94.905 23.6757C99.2064 25.9926 102.518 29.2975 104.839 33.5904C107.229 37.8152 108.424 42.6874 108.424 48.2069ZM92.5548 44.1184C93.1144 44.1184 93.569 43.6586 93.5209 43.1012C93.244 39.8948 91.9301 37.3037 89.5793 35.328C86.9848 33.0794 83.8099 31.955 80.0547 31.955C76.5042 31.955 73.5 33.0453 71.042 35.2258C68.8952 37.1236 67.4922 39.7088 66.8332 42.9814C66.7131 43.5781 67.1828 44.1184 67.7915 44.1184H92.5548Z" fill="white"/>
<path fill-rule="evenodd" clip-rule="evenodd" d="M105.159 85.6231C96.3561 85.6231 89.2202 92.759 89.2202 101.562C89.2202 110.364 96.3561 117.5 105.159 117.5H157.313C166.115 117.5 173.251 110.364 173.251 101.562C173.251 92.759 166.115 85.6231 157.313 85.6231H105.159ZM107.496 110.778V93.4588H118.735V96.0888H110.627V100.791H118.153V103.421H110.627V108.148H118.803V110.778H107.496ZM125.612 110.778V93.4588H132.092C133.419 93.4588 134.533 93.69 135.433 94.1523C136.339 94.6146 137.022 95.2629 137.483 96.0973C137.95 96.9261 138.184 97.8929 138.184 98.9979C138.184 100.109 137.947 101.073 137.475 101.89C137.008 102.702 136.319 103.331 135.408 103.776C135.301 103.827 135.191 103.876 135.079 103.921L138.816 110.778H135.323L131.927 104.436H128.742V110.778H125.612ZM131.628 101.831H128.742V96.0804H131.611C132.393 96.0804 133.031 96.196 133.526 96.4271C134.021 96.6526 134.389 96.9852 134.631 97.425C134.873 97.8591 134.994 98.3834 134.994 98.9979C134.994 99.6125 134.873 100.131 134.631 100.554C134.395 100.971 134.029 101.29 133.534 101.51C133.039 101.724 132.404 101.831 131.628 101.831ZM144.748 93.4588V110.778H147.878V104.926H151.186C152.519 104.926 153.641 104.681 154.552 104.19C155.463 103.694 156.152 103.015 156.619 102.152C157.086 101.29 157.32 100.303 157.32 99.1924C157.32 98.0931 157.086 97.1121 156.619 96.2495C156.158 95.3813 155.475 94.6991 154.569 94.203C153.669 93.7069 152.555 93.4588 151.228 93.4588H144.748ZM147.878 102.347H150.764C151.54 102.347 152.176 102.211 152.671 101.941C153.166 101.67 153.531 101.298 153.767 100.825C154.009 100.351 154.13 99.807 154.13 99.1924C154.13 98.5779 154.009 98.0367 153.767 97.5688C153.531 97.1008 153.163 96.7372 152.662 96.4778C152.167 96.2129 151.529 96.0804 150.747 96.0804H147.878V102.347Z" fill="#4BB3B8"/>
<path fill-rule="evenodd" clip-rule="evenodd" d="M171.308 22.6707C171.86 22.6707 172.308 23.1184 172.308 23.6707V31.8809C172.308 32.4332 171.86 32.8809 171.308 32.8809H161.738C161.186 32.8809 160.738 33.3286 160.738 33.8809V52.6978C160.738 52.7047 160.733 52.7104 160.726 52.7104C160.719 52.7104 160.713 52.716 160.713 52.723V61.7262C160.713 65.4943 159.937 68.6302 158.385 71.1342C156.808 73.6381 154.698 75.51 152.054 76.7498C149.41 77.9896 146.475 78.6095 143.249 78.6095C140.97 78.6095 138.944 78.4272 137.174 78.0625C137.1 78.0474 137.054 77.975 137.071 77.9021L139.221 68.4632C139.333 67.9732 139.791 67.6454 140.293 67.6617C140.463 67.6672 140.636 67.67 140.812 67.67C143.262 67.67 144.996 67.0744 146.015 65.8832C147.009 64.7163 147.506 63.039 147.506 60.8511V33.8809C147.506 33.3286 147.058 32.8809 146.506 32.8809H140.273C139.72 32.8809 139.273 32.4332 139.273 31.8809V23.6707C139.273 23.1184 139.72 22.6707 140.273 22.6707H146.531C147.084 22.6707 147.531 22.223 147.531 21.6707V17.3833C147.531 13.6152 148.308 10.4792 149.86 7.97532C151.436 5.47139 153.547 3.59952 156.19 2.35971C158.834 1.11991 161.769 0.5 164.995 0.5C167.275 0.5 169.3 0.682326 171.071 1.04698C172.313 1.30292 173.329 1.54089 174.118 1.7609C174.62 1.90099 174.9 2.42075 174.771 2.92575L172.64 11.2286C172.499 11.7806 171.925 12.1035 171.37 11.971C171.036 11.8911 170.669 11.8111 170.27 11.7312C169.421 11.5367 168.475 11.4395 167.433 11.4395C164.983 11.4395 163.249 12.0351 162.23 13.2263C161.235 14.3932 160.738 16.0705 160.738 18.2584V21.6707C160.738 22.223 161.186 22.6707 161.738 22.6707H171.308Z" fill="white"/>
</svg>
