<svg width="138" height="138" viewBox="0 0 138 138" fill="none" xmlns="http://www.w3.org/2000/svg">
<g clip-path="url(#clip0_2560_19600)">
<rect width="138" height="138" fill="#93407D"/>
<rect width="138" height="138" fill="url(#paint0_linear_2560_19600)" fill-opacity="0.15" style="mix-blend-mode:multiply"/>
<path style="mix-blend-mode:multiply" fill-rule="evenodd" clip-rule="evenodd" d="M0 130V132C0 135.314 2.68629 138 6 138H132C135.314 138 138 135.314 138 132V130C138 133.314 135.314 136 132 136H6C2.68629 136 0 133.314 0 130ZM6 -7.62939e-06C3.10051 -7.62939e-06 0.681376 2.05668 0.121899 4.79078C0.681379 2.05669 3.10051 0 6 0L132 -7.62939e-06C135.314 0 138 2.68629 138 5.99999C138 2.68628 135.314 -7.62939e-06 132 -7.62939e-06H6Z" fill="black" fill-opacity="0.3"/>
<g style="mix-blend-mode:screen">
<path fill-rule="evenodd" clip-rule="evenodd" d="M137.936 132.881C137.51 135.777 135.014 138 132 138L6 138L132 138C135.014 138 137.51 135.777 137.936 132.881ZM1.11232e-05 8.00002C1.14067e-05 4.68631 2.68629 2.00002 6.00001 2.00002L132 2.00003C135.311 2.00003 137.995 4.68109 138 7.99036L138 6.00006C138 2.68636 135.314 6.07952e-05 132 6.04992e-05L6.00001 4.92445e-05C2.68631 4.89485e-05 1.15778e-05 2.68634 1.12943e-05 6.00005L1.11232e-05 8.00002Z" fill="white" fill-opacity="0.2" style="mix-blend-mode:multiply"/>
</g>
<rect x="-1" width="26" height="12" fill="#005BBB"/>
<rect x="-1" y="12" width="26" height="12" fill="#FFD500"/>
<path d="M-5 57.5L36.5 31.5H68.5L101.5 33L105 43.5L102.5 57.5L104.175 69.5L102.5 80.5L100.41 88.4116L104.175 93.2876H101.5L105 104L34.3915 193H-5V57.5Z" fill="url(#paint1_linear_2560_19600)"/>
<path d="M15.2936 132.727C13.1518 132.727 11.2305 132.336 9.52971 131.554C7.82891 130.74 6.47456 129.648 5.46667 128.28C4.49028 126.912 3.95484 125.397 3.86035 123.736H10.5219C10.6478 124.778 11.1348 125.774 11.9852 126.458C12.8671 127.143 14.0022 127.589 15.2936 127.589C16.5534 127.589 17.3886 127.363 18.0441 126.767C18.6997 126.171 18.9778 125.657 19.0771 124.835C19.1864 123.931 18.8785 123.211 17.9393 122.612C17.0889 122.156 15.7188 121.667 13.829 121.146C11.8762 120.657 10.2699 120.153 9.01002 119.631C7.78166 119.11 6.71078 118.312 5.79738 117.237C4.91548 116.162 4.47453 114.712 4.47453 112.888C4.47453 111.39 4.88399 110.022 5.70289 108.784C6.5533 107.546 7.75016 106.569 9.29349 105.852C10.8683 105.135 12.7109 104.777 14.8211 104.777C17.9393 104.777 20.4275 105.591 22.2858 107.22C24.1441 108.816 25.1677 110.983 25.3567 113.719H19.0259C18.9314 112.644 18.474 111.685 17.6866 111.066C16.9306 110.414 15.8789 109.915 14.5876 109.915C13.3907 109.915 12.5628 110.137 11.9654 110.675C11.3354 111.131 10.992 111.895 10.992 112.71C10.992 113.622 11.3408 114.403 12.2227 114.892C13.1046 115.348 14.4747 115.82 16.333 116.309C18.2227 116.797 19.7818 117.302 21.0102 117.823C22.2385 118.345 23.2937 119.159 24.1756 120.267C25.089 121.342 25.5614 122.775 25.5929 124.566C25.5929 126.13 25.1677 127.531 24.3173 128.769C23.4984 130.007 22.3015 130.984 20.7267 131.7C19.1834 132.385 17.3723 132.727 15.2936 132.727Z" fill="white"/>
<ellipse cx="31.4535" cy="128.194" rx="4.39535" ry="4.53237" fill="white"/>
<g filter="url(#filter0_d_2560_19600)">
<path fill-rule="evenodd" clip-rule="evenodd" d="M40.103 30C36.237 30 33.103 33.134 33.103 37V98C33.103 101.866 36.237 105 40.103 105H100C103.866 105 107 101.866 107 98V37C107 33.134 103.866 30 100 30H40.103ZM43.8872 38.1976C45.4289 37.1675 47.2415 36.6176 49.0957 36.6176C51.5813 36.6203 53.9643 37.6088 55.7219 39.3664C57.4795 41.124 58.4681 43.507 58.4707 45.9926C58.4707 47.8468 57.9208 49.6594 56.8907 51.2011C55.8606 52.7428 54.3964 53.9444 52.6833 54.654C50.9703 55.3636 49.0853 55.5492 47.2667 55.1875C45.4481 54.8258 43.7777 53.9329 42.4666 52.6218C41.1554 51.3107 40.2626 49.6402 39.9008 47.8216C39.5391 46.003 39.7247 44.118 40.4343 42.405C41.1439 40.6919 42.3455 39.2278 43.8872 38.1976ZM49.8168 50.3196H50.1774C50.8468 50.3196 51.4888 50.0536 51.9622 49.5803C52.4355 49.1069 52.7014 48.4649 52.7014 47.7955C52.7014 47.1261 52.4355 46.4841 51.9622 46.0108C51.4888 45.5374 50.8468 45.2715 50.1774 45.2715H48.0139C47.7271 45.2715 47.4519 45.1575 47.249 44.9547C47.0462 44.7518 46.9322 44.4767 46.9322 44.1898C46.9322 43.9029 47.0462 43.6277 47.249 43.4249C47.4519 43.222 47.7271 43.108 48.0139 43.108H51.2591C51.4504 43.108 51.6338 43.0321 51.7691 42.8968C51.9043 42.7616 51.9803 42.5781 51.9803 42.3869C51.9803 42.1956 51.9043 42.0122 51.7691 41.8769C51.6338 41.7417 51.4504 41.6657 51.2591 41.6657H49.8168V40.9446C49.8168 40.7533 49.7409 40.5699 49.6056 40.4346C49.4704 40.2994 49.2869 40.2234 49.0957 40.2234C48.9044 40.2234 48.721 40.2994 48.5857 40.4346C48.4505 40.5699 48.3745 40.7533 48.3745 40.9446V41.6657H48.0139C47.3445 41.6657 46.7025 41.9316 46.2292 42.405C45.7558 42.8783 45.4899 43.5203 45.4899 44.1898C45.4899 44.8592 45.7558 45.5012 46.2292 45.9745C46.7025 46.4479 47.3445 46.7138 48.0139 46.7138H50.1774C50.4643 46.7138 50.7394 46.8278 50.9423 47.0306C51.1452 47.2335 51.2591 47.5086 51.2591 47.7955C51.2591 48.0824 51.1452 48.3576 50.9423 48.5604C50.7394 48.7633 50.4643 48.8773 50.1774 48.8773H46.9322C46.741 48.8773 46.5575 48.9532 46.4223 49.0885C46.287 49.2237 46.2111 49.4072 46.2111 49.5984C46.2111 49.7897 46.287 49.9731 46.4223 50.1083C46.5575 50.2436 46.741 50.3196 46.9322 50.3196H48.3745V51.0407C48.3745 51.232 48.4505 51.4154 48.5857 51.5507C48.721 51.6859 48.9044 51.7619 49.0957 51.7619C49.2869 51.7619 49.4704 51.6859 49.6056 51.5507C49.7409 51.4154 49.8168 51.232 49.8168 51.0407V50.3196ZM49.0956 58.6765C43.918 58.6765 39.7206 62.8739 39.7206 68.0515C39.7206 73.229 43.918 77.4265 49.0956 77.4265C54.2731 77.4265 58.4706 73.229 58.4706 68.0515C58.4706 62.8739 54.2731 58.6765 49.0956 58.6765ZM46.5652 67.6253C46.5473 67.7651 46.5387 67.9066 46.5387 68.0515C46.5387 68.1939 46.5475 68.3362 46.5652 68.4776H49.0956C49.3216 68.4776 49.5384 68.5674 49.6982 68.7272C49.858 68.8871 49.9478 69.1038 49.9478 69.3299C49.9478 69.5559 49.858 69.7727 49.6982 69.9325C49.5384 70.0924 49.3216 70.1822 49.0956 70.1822H47.2862C47.6053 70.5815 48.0103 70.9038 48.4711 71.1252C48.9319 71.3465 49.4366 71.4611 49.9478 71.4606C50.7166 71.4606 51.4231 71.2074 51.9933 70.7787C52.1741 70.643 52.4015 70.5847 52.6253 70.6166C52.8491 70.6484 53.0512 70.7679 53.1869 70.9488C53.3226 71.1296 53.381 71.3569 53.3491 71.5808C53.3172 71.8046 53.1977 72.0066 53.0169 72.1424C52.4059 72.6008 51.6999 72.9166 50.9509 73.0665C50.2019 73.2164 49.4289 73.1966 48.6885 73.0086C47.9481 72.8205 47.2593 72.4691 46.6725 71.98C46.0858 71.4909 45.6161 70.8766 45.2978 70.1822H44.8342C44.6082 70.1822 44.3914 70.0924 44.2315 69.9325C44.0717 69.7727 43.9819 69.5559 43.9819 69.3299C43.9819 69.1038 44.0717 68.8871 44.2315 68.7272C44.3914 68.5674 44.6082 68.4776 44.8342 68.4776H44.8512C44.8278 68.194 44.8278 67.9089 44.8512 67.6253H44.8342C44.6082 67.6253 44.3914 67.5355 44.2315 67.3757C44.0717 67.2159 43.9819 66.9991 43.9819 66.7731C43.9819 66.547 44.0717 66.3302 44.2315 66.1704C44.3914 66.0106 44.6082 65.9208 44.8342 65.9208H45.297C45.6152 65.2264 46.0849 64.6121 46.6717 64.123C47.2584 63.6339 47.9473 63.2824 48.6876 63.0944C49.428 62.9064 50.2011 62.8866 50.9501 63.0365C51.6991 63.1864 52.405 63.5021 53.016 63.9606C53.1968 64.0962 53.3164 64.2981 53.3484 64.5219C53.3803 64.7456 53.3221 64.9729 53.1865 65.1537C53.0508 65.3346 52.8489 65.4541 52.6252 65.4861C52.4014 65.5181 52.1741 65.4598 51.9933 65.3242C51.4231 64.8955 50.7166 64.6424 49.9478 64.6424C49.4366 64.6419 48.9319 64.7566 48.4711 64.9779C48.0103 65.1992 47.6053 65.5215 47.2862 65.9208H49.0956C49.3216 65.9208 49.5384 66.0106 49.6982 66.1704C49.858 66.3302 49.9478 66.547 49.9478 66.7731C49.9478 66.9991 49.858 67.2159 49.6982 67.3757C49.5384 67.5355 49.3216 67.6253 49.0956 67.6253H46.5652ZM49.0956 99.4853C54.2732 99.4853 58.4706 95.288 58.4706 90.1103C58.4706 84.9326 54.2732 80.7353 49.0956 80.7353C43.9179 80.7353 39.7206 84.9326 39.7206 90.1103C39.7206 95.288 43.9179 99.4853 49.0956 99.4853ZM48.259 86.7248C47.7788 86.7248 47.3101 86.8996 46.9332 87.222V87.2245L46.7977 87.3401C46.4806 87.6109 46.0164 87.5567 45.7636 87.2171C45.5109 86.8774 45.5614 86.3802 45.8785 86.1095L46.0141 85.9913C46.6506 85.4449 47.4433 85.1471 48.259 85.1471H49.2563C50.6901 85.1471 51.8528 86.3925 51.8528 87.9284C51.8528 88.1893 51.8183 88.4453 51.754 88.6914H52.2204C52.6272 88.6914 52.9557 89.0434 52.9557 89.4791C52.9557 89.9147 52.6272 90.2667 52.2204 90.2667H50.6625C50.6235 90.2938 50.5844 90.3184 50.5454 90.343L49.3827 91.0544H52.2204C52.6272 91.0544 52.9557 91.4063 52.9557 91.842C52.9557 92.2777 52.6272 92.6296 52.2204 92.6296H46.9608C46.7977 92.8413 46.7057 93.1096 46.7057 93.3927C46.7057 94.0597 47.209 94.5987 47.8317 94.5987H48.8289C49.3114 94.5987 49.7779 94.424 50.1547 94.1015L50.2903 93.9858C50.6074 93.7151 51.0715 93.7692 51.3243 94.1089C51.5771 94.4486 51.5265 94.9458 51.2094 95.2165L51.0738 95.3322C50.4374 95.8786 49.6446 96.1765 48.8289 96.1765H47.8317C46.3978 96.1765 45.2352 94.931 45.2352 93.3951C45.2352 93.1342 45.2696 92.8758 45.334 92.6321H44.8675C44.4608 92.6321 44.1322 92.2801 44.1322 91.8445C44.1322 91.4088 44.4608 91.0568 44.8675 91.0568H46.4254C46.4645 91.0297 46.5035 91.0051 46.5426 90.9805L47.7053 90.2692H44.8675C44.4608 90.2692 44.1322 89.9172 44.1322 89.4815C44.1322 89.0459 44.4608 88.6939 44.8675 88.6939H50.1272C50.2903 88.4822 50.3822 88.2139 50.3822 87.9309C50.3822 87.2638 49.879 86.7248 49.2563 86.7248H48.259ZM67.2941 41.0294C66.0758 41.0294 65.0882 42.017 65.0882 43.2353C65.0882 44.4536 66.0758 45.4412 67.2941 45.4412H94.8676C96.0859 45.4412 97.0735 44.4536 97.0735 43.2353C97.0735 42.017 96.0859 41.0294 94.8676 41.0294H67.2941ZM65.0882 64.1912C65.0882 62.9729 66.0758 61.9853 67.2941 61.9853H94.8676C96.0859 61.9853 97.0735 62.9729 97.0735 64.1912C97.0735 65.4095 96.0859 66.3971 94.8676 66.3971H67.2941C66.0758 66.3971 65.0882 65.4095 65.0882 64.1912ZM67.2941 84.0441C66.0758 84.0441 65.0882 85.0317 65.0882 86.25C65.0882 87.4683 66.0758 88.4559 67.2941 88.4559H94.8676C96.0859 88.4559 97.0735 87.4683 97.0735 86.25C97.0735 85.0317 96.0859 84.0441 94.8676 84.0441H67.2941ZM65.0882 50.9559C65.0882 49.7376 66.0758 48.75 67.2941 48.75H94.8676C96.0859 48.75 97.0735 49.7376 97.0735 50.9559C97.0735 52.1742 96.0859 53.1618 94.8676 53.1618H67.2941C66.0758 53.1618 65.0882 52.1742 65.0882 50.9559ZM67.2941 69.7059C66.0758 69.7059 65.0882 70.6935 65.0882 71.9118C65.0882 73.13 66.0758 74.1176 67.2941 74.1176H94.8676C96.0859 74.1176 97.0735 73.13 97.0735 71.9118C97.0735 70.6935 96.0859 69.7059 94.8676 69.7059H67.2941ZM65.0882 93.9706C65.0882 92.7523 66.0758 91.7647 67.2941 91.7647H94.8676C96.0859 91.7647 97.0735 92.7523 97.0735 93.9706C97.0735 95.1889 96.0859 96.1765 94.8676 96.1765H67.2941C66.0758 96.1765 65.0882 95.1889 65.0882 93.9706Z" fill="white"/>
</g>
</g>
<defs>
<filter id="filter0_d_2560_19600" x="33.103" y="30" width="73.897" height="77" filterUnits="userSpaceOnUse" color-interpolation-filters="sRGB">
<feFlood flood-opacity="0" result="BackgroundImageFix"/>
<feColorMatrix in="SourceAlpha" type="matrix" values="0 0 0 0 0 0 0 0 0 0 0 0 0 0 0 0 0 0 127 0" result="hardAlpha"/>
<feOffset dy="2"/>
<feComposite in2="hardAlpha" operator="out"/>
<feColorMatrix type="matrix" values="0 0 0 0 0 0 0 0 0 0 0 0 0 0 0 0 0 0 0.5 0"/>
<feBlend mode="normal" in2="BackgroundImageFix" result="effect1_dropShadow_2560_19600"/>
<feBlend mode="normal" in="SourceGraphic" in2="effect1_dropShadow_2560_19600" result="shape"/>
</filter>
<linearGradient id="paint0_linear_2560_19600" x1="-2.57045e-07" y1="138" x2="140.965" y2="3.09775" gradientUnits="userSpaceOnUse">
<stop/>
<stop offset="1" stop-opacity="0"/>
</linearGradient>
<linearGradient id="paint1_linear_2560_19600" x1="0.907159" y1="166.697" x2="80.0449" y2="89.175" gradientUnits="userSpaceOnUse">
<stop stop-opacity="0.24"/>
<stop offset="1" stop-opacity="0.1"/>
</linearGradient>
<clipPath id="clip0_2560_19600">
<rect width="138" height="138" rx="6" fill="white"/>
</clipPath>
</defs>
</svg>
